<svg xmlns="http://www.w3.org/2000/svg" xmlns:xlink="http://www.w3.org/1999/xlink" id="Layer_1" x="0px" y="0px" viewBox="0 0 595.28 200.67" style="enable-background:new 0 0 595.28 200.67;" xml:space="preserve"><style type="text/css">	.st0{clip-path:url(#SVGID_00000047748794464759294960000006736920958775851167_);}	.st1{clip-path:url(#SVGID_00000047748794464759294960000006736920958775851167_);fill:#65544B;}	.st2{clip-path:url(#SVGID_00000047748794464759294960000006736920958775851167_);fill:#C4B483;}	.st3{fill:#FFFFFF;}	.st4{fill:#C4B483;}	.st5{fill:#00ADDB;}	.st6{clip-path:url(#SVGID_00000106123649292572771870000017950726760118726789_);fill:#65544B;}	.st7{fill:#65544B;}	.st8{clip-path:url(#SVGID_00000095326808828273653820000003354423713961681587_);fill:#65544B;}	.st9{clip-path:url(#SVGID_00000111870455096312043180000008227891216889647270_);fill:#65544B;}	.st10{clip-path:url(#SVGID_00000127029140296383553690000002434529041166957725_);fill:#65544B;}	.st11{clip-path:url(#SVGID_00000103250679539169121590000006782463605914206338_);fill:#65544B;}	.st12{clip-path:url(#SVGID_00000089533287062022911410000003576924810688156807_);fill:#005A66;}	.st13{fill:#005A66;}</style><g>	<defs>		<rect id="SVGID_1_" x="-137.9" y="-207.18" width="871.07" height="613.9"></rect>	</defs>	<clipPath id="SVGID_00000083788071103308263160000003573985985227479185_">		<use xlink:href="#SVGID_1_" style="overflow:visible;"></use>	</clipPath>	<path style="clip-path:url(#SVGID_00000083788071103308263160000003573985985227479185_);" d="M548.75,98.93l-44.6-87.52  l-44.6,87.52l-9.74,19.03h21.31l9.74-19.03l23.29-45.66l23.29,45.66l9.74,19.03h21.31L548.75,98.93z M387.26,30.44h53.27V11.41  h-53.27c-29.38,0-53.27,23.9-53.27,53.27c0,29.38,23.9,53.27,53.27,53.27h53.27V98.93h-53.27c-18.87,0-34.25-15.37-34.25-34.25  C353.02,45.81,368.39,30.44,387.26,30.44 M320.29,11.41h-19.03v106.54h19.03V11.41z M208.27,11.41  c-15.83,0-28.61,12.94-28.61,28.77v77.78h18.87V69.1h68.65V50.07h-68.49v-9.89c0-5.33,4.41-9.74,9.74-9.74h77.78V11.41H208.27z"></path>	<path style="clip-path:url(#SVGID_00000083788071103308263160000003573985985227479185_);fill:#65544B;" d="M177.67,177.46  c-0.13,5.91,4.97,10.75,10.84,10.66c3.84,0,7.09-1.84,8.84-4.75l-2.5-1.84c-1.47,2.28-3.59,3.56-6.31,3.56  c-4.22,0-7.44-3.25-7.44-7.63c0-4.38,3.22-7.63,7.44-7.63c2.72,0,4.85,1.28,6.31,3.56l2.5-1.84c-1.78-2.91-5.06-4.75-8.84-4.75  C182.63,166.71,177.54,171.55,177.67,177.46 M201.33,187.77h3.31v-9.44h10.38v9.44h3.31v-20.63h-3.31v8.22h-10.38v-8.22h-3.31  V187.77z M237.4,187.77h3.56l-9.1-20.97h-1.12l-9.1,20.97h3.53l1.47-3.44h9.28L237.4,187.77z M234.74,181.49h-6.91l3.47-8.53  L234.74,181.49z M261,187.77l-6.19-8.5c2.47-0.97,3.96-3.09,3.96-5.81c0-3.72-2.84-6.31-7-6.31h-7.53v20.63h3.31v-7.97h3.79  l5.88,7.97H261z M247.55,170.08h4.16c2.28,0,3.66,1.37,3.66,3.41c0,2-1.37,3.38-3.66,3.38h-4.16V170.08z M268.04,187.77h3.31  v-17.66h6.97v-2.97H261.1v2.97h6.94V187.77z M281.41,187.77h13.94v-2.97h-10.63v-6.54h7.72v-2.87h-7.72v-5.29h10.25v-2.97h-13.56  V187.77z M315.95,187.77l-6.19-8.5c2.47-0.97,3.97-3.09,3.97-5.81c0-3.72-2.84-6.31-7-6.31h-7.53v20.63h3.31v-7.97h3.79l5.88,7.97  H315.95z M302.51,170.08h4.16c2.28,0,3.66,1.37,3.66,3.41c0,2-1.38,3.38-3.66,3.38h-4.16V170.08z M318.92,187.77h13.94v-2.97  h-10.63v-6.54h7.72v-2.87h-7.72v-5.29h10.25v-2.97h-13.56V187.77z M336.71,187.77h6.46c6.72,0,11.22-4.34,11.22-10.35  c0-6.1-4.47-10.28-11.22-10.28h-6.46V187.77z M340.02,184.8v-14.66h3.13c4.82,0,7.85,2.9,7.85,7.28c0,4.32-3.06,7.38-7.85,7.38  H340.02z M379.37,187.77h3.56l-9.09-20.97h-1.13l-9.09,20.97h3.53l1.47-3.44h9.28L379.37,187.77z M376.72,181.49h-6.91l3.47-8.53  L376.72,181.49z M384.47,177.46c-0.13,5.91,4.97,10.75,10.84,10.66c3.85,0,7.09-1.84,8.84-4.75l-2.5-1.84  c-1.47,2.28-3.59,3.56-6.31,3.56c-4.22,0-7.44-3.25-7.44-7.63c0-4.38,3.22-7.63,7.44-7.63c2.72,0,4.85,1.28,6.31,3.56l2.5-1.84  c-1.78-2.91-5.06-4.75-8.84-4.75C389.44,166.71,384.34,171.55,384.47,177.46 M406.73,177.46c-0.13,5.91,4.97,10.75,10.84,10.66  c3.84,0,7.09-1.84,8.84-4.75l-2.5-1.84c-1.47,2.28-3.59,3.56-6.31,3.56c-4.22,0-7.44-3.25-7.44-7.63c0-4.38,3.22-7.63,7.44-7.63  c2.72,0,4.85,1.28,6.31,3.56l2.5-1.84c-1.78-2.91-5.06-4.75-8.84-4.75C411.7,166.71,406.6,171.55,406.73,177.46 M428.98,177.46  c-0.13,5.91,4.9,10.75,10.81,10.66c5.85,0.09,10.97-4.75,10.84-10.66c0.13-5.91-5-10.75-10.84-10.66  C433.92,166.71,428.89,171.55,428.98,177.46 M447.24,177.42c0,4.41-3.19,7.66-7.41,7.66c-4.28,0-7.41-3.25-7.41-7.66  c0-4.35,3.13-7.6,7.41-7.6C444.05,169.83,447.24,173.11,447.24,177.42 M454.4,179.43c0,5.44,3.56,8.69,8.5,8.69  c4.85,0,8.44-3.25,8.44-8.69v-12.29h-3.31v12.5c0,3.5-2.13,5.44-5.13,5.44c-3.03,0-5.19-1.94-5.19-5.44v-12.5h-3.31V179.43z   M490,167.14v13.91l-12.53-14.25h-1.15v20.97h3.31V173.8l12.57,14.31h1.12v-20.97H490z M503.38,187.77h3.31v-17.66h6.97v-2.97  h-17.22v2.97h6.94V187.77z M528.26,187.77h3.56l-9.1-20.97h-1.12l-9.1,20.97h3.53l1.47-3.44h9.28L528.26,187.77z M525.6,181.49  h-6.91l3.47-8.53L525.6,181.49z M548.8,167.14v13.91l-12.54-14.25h-1.15v20.97h3.31V173.8l12.57,14.31h1.12v-20.97H548.8z   M562.17,187.77h3.31v-17.66h6.97v-2.97h-17.22v2.97h6.94V187.77z M574.09,183.65c1.59,2.78,4.4,4.47,7.78,4.47  c3.97,0,6.9-2.37,6.9-5.97c0-2.72-1.59-4.35-4.94-5.88l-2.31-1.06c-2.04-1.03-2.75-1.31-2.88-2.94c0-1.63,1.38-2.5,3.13-2.5  c1.75,0,3.25,0.87,4.35,2.5l2.31-1.78c-1.28-2.22-3.75-3.69-6.66-3.69c-3.56,0-6.5,2.22-6.5,5.59c0,2.75,1.81,4.35,4.81,5.72  l2.28,1.06c2.16,1,3.03,1.63,3.03,3.09c0,1.75-1.44,2.88-3.56,2.88c-2.38,0-4.03-1.28-5.41-3.28L574.09,183.65z"></path>	<path style="clip-path:url(#SVGID_00000083788071103308263160000003573985985227479185_);fill:#65544B;" d="M178.92,159.35h3.31  v-8.5h8.19v-3h-8.19v-6.16h9.94v-2.96h-13.25V159.35z M195.45,159.35h3.31v-20.63h-3.31V159.35z M202.01,159.35  c1,0.22,1.94,0.34,2.85,0.34c3.66,0,5.81-1.81,5.81-5.47v-15.5h-3.31v15.16c0,2.09-1.06,2.78-3.22,2.78  c-0.47,0-1.19-0.06-2.13-0.16V159.35z M215.86,159.35h3.31v-20.63h-3.31V159.35z M233.12,159.35h3.31v-20.63h-3.31V159.35z   M255.31,138.73v13.91l-12.54-14.25h-1.15v20.97h3.31v-13.97l12.57,14.31h1.12v-20.97H255.31z M262.37,155.23  c1.6,2.78,4.4,4.47,7.78,4.47c3.97,0,6.91-2.37,6.91-5.97c0-2.72-1.59-4.35-4.94-5.88l-2.31-1.06c-2.03-1.04-2.75-1.32-2.88-2.94  c0-1.63,1.38-2.5,3.13-2.5c1.75,0,3.25,0.87,4.34,2.5l2.31-1.78c-1.28-2.22-3.75-3.69-6.66-3.69c-3.57,0-6.5,2.22-6.5,5.59  c0,2.75,1.81,4.35,4.81,5.72l2.28,1.06c2.16,1,3.03,1.63,3.03,3.1c0,1.75-1.44,2.88-3.57,2.88c-2.37,0-4.03-1.28-5.41-3.28  L262.37,155.23z M286.16,159.35h3.31v-17.66h6.97v-2.96h-17.22v2.96h6.94V159.35z M299.54,159.35h3.31v-20.63h-3.31V159.35z   M312.89,159.35h3.31v-17.66h6.97v-2.96h-17.22v2.96h6.94V159.35z M326.05,151.01c0,5.44,3.56,8.69,8.5,8.69  c4.85,0,8.44-3.25,8.44-8.69v-12.28h-3.31v12.5c0,3.5-2.13,5.44-5.12,5.44c-3.03,0-5.19-1.94-5.19-5.44v-12.5h-3.31V151.01z   M352.8,159.35h3.31v-17.66h6.97v-2.96h-17.22v2.96h6.94V159.35z M366.18,159.35h13.94v-2.96h-10.63v-6.54h7.72v-2.87h-7.72v-5.29  h10.25v-2.96h-13.56V159.35z M391.47,149.04c-0.13,5.91,4.91,10.75,10.81,10.66c5.85,0.1,10.97-4.75,10.84-10.66  c0.13-5.91-5-10.75-10.84-10.66C396.41,138.29,391.38,143.13,391.47,149.04 M409.72,149.01c0,4.41-3.19,7.66-7.41,7.66  c-4.28,0-7.41-3.25-7.41-7.66c0-4.34,3.13-7.6,7.41-7.6C406.54,141.41,409.72,144.69,409.72,149.01 M417.1,159.35h3.31v-8.5h8.19  v-3h-8.19v-6.16h9.94v-2.96H417.1V159.35z"></path>	<path style="clip-path:url(#SVGID_00000083788071103308263160000003573985985227479185_);fill:#C4B483;" d="M17.84,169.53v9.13  l-9.82-9.46H6.51v18.58h4.71v-9.26l9.82,9.6h1.51v-18.58H17.84z M37.31,187.78h5.07l-8.23-18.58h-1.51l-8.23,18.58h5.07l0.66-1.52  h6.5L37.31,187.78z M34.98,182.45h-3.15l1.59-4.23L34.98,182.45z M50.57,187.78h6.31c5.54,0.08,9.96-3.79,9.87-9.18  c0.08-5.48-4.33-9.13-9.87-9.07h-6.31V187.78z M55.28,183.5v-9.65h1.56c2.99,0,5.08,1.66,5.08,4.76c0,3.02-2.11,4.9-5.08,4.9H55.28  z M69.44,187.78h4.71v-18.25h-4.71V187.78z M89.11,169.53v9.13l-9.82-9.46h-1.51v18.58h4.71v-9.26l9.82,9.6h1.51v-18.58H89.11z   M108.58,187.78h5.07l-8.23-18.58h-1.51l-8.23,18.58h5.07l0.66-1.52h6.5L108.58,187.78z M106.25,182.45h-3.15l1.59-4.23  L106.25,182.45z M120.9,178.66c-0.08,5.28,4.41,9.54,9.85,9.46c1.95,0,3.71-0.47,5.27-1.38c1.56-0.94,2.77-2.16,3.62-3.68v-5.75  h-8.94v4.09h4.23v0.86c-0.88,1.02-2.25,1.63-3.98,1.63c-3.21,0-5.21-2.1-5.21-5.23c0-3.07,1.89-5.09,4.94-5.09  c1.98,0,3.4,0.86,4.58,2.52l3.29-2.82c-1.75-2.62-4.47-4.06-7.79-4.06C125.31,169.12,120.81,173.4,120.9,178.66 M153.18,187.78  h5.07l-8.23-18.58h-1.51l-8.23,18.58h5.07l0.66-1.52h6.5L153.18,187.78z M150.85,182.45h-3.15l1.59-4.23L150.85,182.45z"></path></g><polygon class="st3" points="6.5,127.29 6.5,120.1 45.23,91.78 73.39,113.29 109.74,64.04 126.44,78.84 158.25,25.57 158.25,36.78  127.76,87.92 110.59,72.5 74.55,121.42 45.17,98.97 "></polygon><polygon class="st4" points="45.23,91.78 73.39,113.28 109.74,64.03 126.41,78.88 158.25,25.61 158.25,11.42 6.52,11.42  6.52,120.13 "></polygon><polygon class="st5" points="127.76,87.79 110.6,72.51 74.52,121.39 45.15,98.98 6.52,127.29 6.52,163.38 158.25,163.38  158.25,36.78 "></polygon><g>	<defs>		<rect id="SVGID_00000119840302343661190000000012909341250358132913_" x="-137.9" y="-207.18" width="871.07" height="613.9"></rect>	</defs>	<clipPath id="SVGID_00000134957582080366374580000005686892513394015650_">		<use xlink:href="#SVGID_00000119840302343661190000000012909341250358132913_" style="overflow:visible;"></use>	</clipPath>	<path style="clip-path:url(#SVGID_00000134957582080366374580000005686892513394015650_);fill:#65544B;" d="M119.52,44.7  c0,0-2.05-14.74,3.25-25.22c1.74-3.44,4.04-6.07,6.34-8.07h-4.21c-1.83,1.85-3.58,4.1-4.99,6.88c-3.07,6.07-3.71,13.43-3.71,18.54  v0.17c-2.62-2.81-5.92-6.82-8.55-11.52c-2.84-5.09-4.57-10.33-5.57-14.07h-3.15c1.08,4.12,2.99,10,6.21,15.76  C110.94,37.54,119.52,44.7,119.52,44.7"></path></g><polygon class="st7" points="33.7,22.8 36.6,35.76 37.26,35.76 40.93,35.76 41.6,35.76 44.5,22.8 47.07,35.76 51.74,35.76  51.74,21.73 46.07,17.83 46.07,15.78 51.74,12.37 51.74,11.41 40.76,11.41 39.17,15.64 37.51,11.41 26.46,11.41 26.46,12.37  32.13,15.78 32.13,17.83 26.46,21.73 26.46,35.76 31.13,35.76 "></polygon><g>	<defs>		<rect id="SVGID_00000179608311241249352280000013847604243941133231_" x="-137.9" y="-207.18" width="871.07" height="613.9"></rect>	</defs>	<clipPath id="SVGID_00000116236201189315502520000001086672483019722904_">		<use xlink:href="#SVGID_00000179608311241249352280000013847604243941133231_" style="overflow:visible;"></use>	</clipPath>	<path style="clip-path:url(#SVGID_00000116236201189315502520000001086672483019722904_);fill:#65544B;" d="M114.14,29.26  c0,0,1.02-4.29,1.1-9.27c0.07-4.98-3.44-8.09-3.44-8.09s-1.97,4.25-1.61,8.54C110.56,24.73,114.14,29.26,114.14,29.26"></path>	<path style="clip-path:url(#SVGID_00000116236201189315502520000001086672483019722904_);fill:#65544B;" d="M149.98,15.14  l-13.64-2.78c-2.15,1.06-4.18,2.42-5.94,4.18c-0.23,0.23-0.46,0.48-0.68,0.72l15.06,3.06L149.98,15.14z"></path></g><polygon class="st7" points="62.13,22.8 65.04,35.76 65.7,35.76 69.37,35.76 70.04,35.76 72.94,22.8 75.51,35.76 80.18,35.76  80.18,21.73 74.51,17.83 74.51,15.78 80.18,12.37 80.18,11.41 69.2,11.41 67.6,15.64 65.95,11.41 54.9,11.41 54.9,12.37  60.57,15.78 60.57,17.83 54.9,21.73 54.9,35.76 59.57,35.76 "></polygon><polygon class="st7" points="8.83,35.77 12.5,35.77 13.16,35.77 16.07,22.8 18.63,35.77 23.3,35.77 23.3,21.73 17.63,17.83  17.63,15.78 23.3,12.37 23.3,11.41 12.32,11.41 10.73,15.64 9.08,11.41 6.5,11.41 6.5,28.36 8.16,35.77 "></polygon><polygon class="st7" points="48.9,64.72 46.03,57.24 43.27,64.72 46.03,71.84 "></polygon><polygon class="st7" points="70.09,64.36 67.33,57.24 64.46,64.36 67.33,71.84 "></polygon><g>	<defs>		<rect id="SVGID_00000001666197586628914800000007131498575578576318_" x="-137.9" y="-207.18" width="871.07" height="613.9"></rect>	</defs>	<clipPath id="SVGID_00000095330550235228811300000016919426726676212877_">		<use xlink:href="#SVGID_00000001666197586628914800000007131498575578576318_" style="overflow:visible;"></use>	</clipPath>	<path style="clip-path:url(#SVGID_00000095330550235228811300000016919426726676212877_);fill:#65544B;" d="M139.46,30.28  l2.45,12.04c2.06-0.74,4.08-1.72,5.93-3l-2.95-14.48L139.46,30.28z"></path>	<path style="clip-path:url(#SVGID_00000095330550235228811300000016919426726676212877_);fill:#65544B;" d="M122.78,47.95  c0,0,5.84,6.98,14.59,12.6l1.56-2.6c-3.38-2.22-6.27-4.65-8.45-6.67h0.17c3.7,0,8.57-0.35,13.29-1.7l2.48-4.16  C136.1,49.79,122.78,47.95,122.78,47.95"></path>	<path style="clip-path:url(#SVGID_00000095330550235228811300000016919426726676212877_);fill:#65544B;" d="M132.26,37.47  l1.38,6.76c1.88-0.23,3.87-0.6,5.87-1.15l-2.17-10.68L132.26,37.47z"></path>	<path style="clip-path:url(#SVGID_00000095330550235228811300000016919426726676212877_);fill:#65544B;" d="M150.76,36.9  c1.76-1.76,3.12-3.79,4.18-5.94l-2.73-13.43l-5.19,5.19l3.02,14.85C150.28,37.36,150.52,37.14,150.76,36.9"></path>	<path style="clip-path:url(#SVGID_00000095330550235228811300000016919426726676212877_);fill:#65544B;" d="M140.7,54.98l1.36-2.27  c-2.25,0.31-3.77,0.66-3.77,0.66S139.25,54.13,140.7,54.98"></path>	<path style="clip-path:url(#SVGID_00000095330550235228811300000016919426726676212877_);fill:#65544B;" d="M158.26,18.15v-6.68  l-3.93,3.93l2.3,11.3C157.55,23.76,158.03,20.8,158.26,18.15"></path></g><polygon class="st7" points="153.71,11.41 144.21,11.41 152.11,13.02 "></polygon><g>	<defs>		<rect id="SVGID_00000178888287369608990520000011374395506685805193_" x="-137.9" y="-207.18" width="871.07" height="613.9"></rect>	</defs>	<clipPath id="SVGID_00000153705173372485095350000012323176922771041420_">		<use xlink:href="#SVGID_00000178888287369608990520000011374395506685805193_" style="overflow:visible;"></use>	</clipPath>	<path style="clip-path:url(#SVGID_00000153705173372485095350000012323176922771041420_);fill:#65544B;" d="M122.77,42.35  l5.14-5.14l-5.09-1.04C122.65,38.71,122.69,40.88,122.77,42.35"></path>	<path style="clip-path:url(#SVGID_00000153705173372485095350000012323176922771041420_);fill:#65544B;" d="M123.07,33.67  l6.97,1.42l5.07-5.07l-10.89-2.22C123.67,29.8,123.3,31.79,123.07,33.67"></path>	<path style="clip-path:url(#SVGID_00000153705173372485095350000012323176922771041420_);fill:#65544B;" d="M131.14,44.48  l-0.99-4.88l-4.95,4.95C126.65,44.62,128.73,44.65,131.14,44.48"></path>	<path style="clip-path:url(#SVGID_00000153705173372485095350000012323176922771041420_);fill:#65544B;" d="M124.99,25.4  l12.24,2.49l5.43-5.43l-14.68-2.99C126.71,21.32,125.73,23.34,124.99,25.4"></path></g><polygon class="st7" points="27.7,64.36 24.93,57.24 22.07,64.36 24.93,71.84 "></polygon><g>	<defs>		<rect id="SVGID_00000088118799782891087990000002091208171883458227_" x="-137.9" y="-207.18" width="871.07" height="613.9"></rect>	</defs>	<clipPath id="SVGID_00000123425376432940645410000006843314886416581038_">		<use xlink:href="#SVGID_00000088118799782891087990000002091208171883458227_" style="overflow:visible;"></use>	</clipPath>	<path style="clip-path:url(#SVGID_00000123425376432940645410000006843314886416581038_);fill:#65544B;" d="M15.84,86.56V76.3  l4.05-2.85v-1.5l-4.05-2.49v-1.57l4.1-2.78V63.9l-4.1-2.71v-1.5l4.1-2.64v-1.43l-4.1-2.78V42.52h3.1l2.39,9.97l1.77-9.62h0.48h2.62  h0.48l1.77,9.62l2.39-9.97h3.1v10.33l-4.1,2.78v1.43l4.1,2.64v1.5l-4.1,2.71v1.21l4.1,2.78v1.57l-4.05,2.49v1.5l4.05,2.85v10.26  h-2.17v-9.73h-1.63v9.73h-1.4v-9.73H27.1v9.73h-1.4v-9.73h-1.63v9.73h-1.4v-9.73h-1.63v9.73h-1.4v-9.73h-1.63v9.73H15.84z   M37.04,76.22l4.1-2.78v-1.43l-4.1-2.64v-1.5l4.1-2.71v-1.21l-4.1-2.78v-1.57l4.05-2.49v-1.5l-4.05-2.85V42.52h2.17v9.73h1.63  v-9.73h1.4v9.73h1.63v-9.73h1.4v9.73h1.63v-9.73h1.4v9.73h1.63v-9.73h1.4v9.73h1.63v-9.73h2.17v10.26l-4.05,2.85v1.5l4.05,2.49  v1.57l-4.1,2.78v1.21l4.1,2.71v1.5l-4.1,2.64v1.43l4.1,2.78v10.33h-3.1l-2.39-9.98l-1.77,9.62h-0.48h-2.62h-0.48l-1.77-9.62  l-2.39,9.98h-3.1V76.22z M58.24,76.3l4.05-2.85v-1.5l-4.05-2.49v-1.57l4.1-2.78V63.9l-4.1-2.71v-1.5l4.1-2.64v-1.43l-4.1-2.78  V42.52h3.1l2.39,9.97l1.76-9.62h0.48h2.62h0.48l1.77,9.62l2.39-9.97h3.1v10.33l-4.1,2.78v1.43l4.1,2.64v1.5l-4.1,2.71v1.21  l4.1,2.78v1.57l-4.05,2.49v1.5l4.05,2.85v10.26h-2.17v-9.73h-1.63v9.73h-1.4v-9.73h-1.63v9.73h-1.4v-9.73h-1.63v9.73h-1.4v-9.73  h-1.63v9.73h-1.4v-9.73H60.4v9.73h-2.17V76.3z M87.27,92.19L78.4,103.6l-8.87-11.41H87.27z M94.81,51.87  c5.58-1.64,9.76,2.42,9.76,2.42s-1.82,4.84-7.67,5.79c-6.69,1.09-9.47-1.69-9.47-1.69S89.22,53.51,94.81,51.87 M21.82,91.56  L21.82,91.56h8.96h0l4.83,7.25l2.83-2.07l-3.54-4.55h9.75l0.58-0.42l0.56,0.42h6.86l-2.55,3.28l2.61,1.99l3.94-5.91h0h8.96h0  l11.3,16.96l25.3-34.28c-0.28,0.24-0.55,0.48-0.86,0.72c-7.04,5.3-11.93,3.78-11.93,3.78s-0.88-6.71,4.55-11.97  c5.44-5.26,12.69-3.12,12.69-3.12s0.34,2.79-1.08,6.02l4.17-5.65l2.03,1.81c1.53-2.29,3.57-3.41,3.57-3.41s4.08,3.18,3.25,9.04  c-0.02,0.13-0.04,0.25-0.07,0.39l7.88,7.02l5.1-8.54l-5.91-11.89l-15.43-1.15l-1.15-15.43l-13.92-6.93l4.69-15.01l-7.04-8.51h-9.24  v28.46H6.5v12.38h1.03v-9.73h1.4v9.73h1.63v-9.73h2.17v10.26l-4.05,2.85v1.5l4.05,2.49v1.57l-4.1,2.78v1.21l4.1,2.71v1.5l-4.1,2.64  v1.43l4.1,2.78v10.33h-3.1l-2.39-9.98L6.5,80.61v11.58h10.83L8.46,103.6l-1.95-2.51v6.03l2.47,3.71L21.82,91.56z"></path></g><polygon class="st7" points="26.3,98.28 16.72,112.66 29.6,103.23 "></polygon><polygon class="st7" points="58.64,102 68.74,109.7 61.12,98.28 "></polygon><polygon class="st7" points="10.04,117.55 6.5,117.55 6.5,120.14 "></polygon><g>	<defs>		<rect id="SVGID_00000012448761942455907590000009632985832061502594_" x="-137.9" y="-207.18" width="871.07" height="613.9"></rect>	</defs>	<clipPath id="SVGID_00000150781397470867134590000009037810745389575327_">		<use xlink:href="#SVGID_00000012448761942455907590000009632985832061502594_" style="overflow:visible;"></use>	</clipPath>	<path style="clip-path:url(#SVGID_00000150781397470867134590000009037810745389575327_);fill:#005A66;" d="M147.87,103.83  L139,92.43h17.74L147.87,103.83z M113.25,103.83l-8.87-11.41h17.74L113.25,103.83z M137.84,70.94l-10.07,16.85l-11.24-10.01  c-1.17,1.83-2.35,2.46-2.35,2.46s-3.29-2.56-3.91-7.27L96.38,91.8h3.87h0l13.13,19.7l13.13-19.7h0h8.96h0l12.84,19.27l9.94-14.92  V76.76l-10.71-8.85L137.84,70.94z"></path>	<path style="clip-path:url(#SVGID_00000150781397470867134590000009037810745389575327_);fill:#005A66;" d="M142.24,63.58  c6.23,3.17,12.39,4.91,16.02,5.74v-3.14c-3.3-0.76-8.88-2.34-14.48-5.18L142.24,63.58z"></path>	<path style="clip-path:url(#SVGID_00000150781397470867134590000009037810745389575327_);fill:#005A66;" d="M153.2,45.26  c2.03-1.52,3.72-3.18,5.06-4.84v-3.63L153.2,45.26z"></path>	<path style="clip-path:url(#SVGID_00000150781397470867134590000009037810745389575327_);fill:#005A66;" d="M155.65,55.94  c0,0-2.61-2.89-6.84-3.35l-2.85,4.78c0.39,0.08,0.78,0.15,1.16,0.18C151.41,57.92,155.65,55.94,155.65,55.94"></path></g><polygon class="st13" points="8,142.29 6.5,144.03 6.5,151.02 8,149.52 14.76,156.28 8,163.04 6.5,161.55 6.5,163.38 14.65,163.38  23.06,157.34 "></polygon><path class="st13" d="M55.87,160.92l-6.76-6.76l6.76-6.76l6.76,6.76L55.87,160.92z M55.87,142.29L40.81,153.1l10.28,10.28h8.89 l8.83-10.28L55.87,142.29z"></path><rect x="99.05" y="154.44" transform="matrix(0.7073 -0.7069 0.7069 0.7073 -80.9467 117.0663)" class="st13" width="3.69" height="3.69"></rect><path class="st13" d="M100.9,163.04l-6.76-6.76l6.76-6.76l6.76,6.76L100.9,163.04z M100.9,142.29l-12.94,15.06l7.22,6.04h12.37 l8.41-6.04L100.9,142.29z"></path><path class="st13" d="M122.23,117.79l8.87-11.41l8.87,11.41H122.23z M86.91,117.79l8.87-11.41l8.87,11.41H86.91z M152.8,117.79 L152.8,117.79h-8.96L131,98.52l-12.84,19.27h-0.58h-8.38h-0.58L95.77,98.52l-12.84,19.27h-5.73l-2.53,3.43h83.6v-3.43h-1.42 l1.42-1.82v-6.38L152.8,117.79z"></path><polygon class="st13" points="138.78,126.63 132.37,126.63 126.3,135.44 120.35,126.63 115.92,126.63 125.95,137.6 "></polygon><rect x="146.93" y="152.32" transform="matrix(0.7071 -0.7071 0.7071 0.7071 -65.4365 150.3473)" class="st13" width="3.69" height="3.69"></rect><polygon class="st13" points="158.26,130.89 158.26,126.63 153.34,126.63 "></polygon><polygon class="st13" points="105.16,126.63 125.48,144.25 148.45,126.63 141.7,126.63 125.48,140.28 111.48,126.63 "></polygon><polygon class="st13" points="124.12,149.74 101.96,127.57 82.11,148.1 56.93,127.57 31.23,149.74 9.06,127.57 6.5,130.21  6.5,139.62 8,138.13 26.15,156.28 19.06,163.38 29.55,163.38 32.64,160.71 35.31,163.38 46.93,163.38 37.71,154.16 55.87,136.01  74.03,154.16 64.81,163.38 73.66,163.38 74.66,162.35 75.92,163.38 89.84,163.38 82.74,156.28 100.89,138.13 119.05,156.28  111.95,163.38 122.44,163.38 125.54,160.71 128.21,163.38 139.83,163.38 130.61,154.16 148.77,136.01 158.26,145.5 158.26,134.44  149.83,127.57 "></polygon><path class="st13" d="M148.77,160.92l-6.76-6.76l6.76-6.76l6.76,6.76L148.77,160.92z M133.71,153.1l10.28,10.28h8.89l5.39-6.27 v-6.89l-9.49-7.94L133.71,153.1z"></path><rect x="54.03" y="152.32" transform="matrix(0.7071 -0.7071 0.7071 0.7071 -92.6448 84.6607)" class="st13" width="3.69" height="3.69"></rect><polygon class="st13" points="52.29,117.79 58.81,109.4 55.54,106.9 48.28,117.79 48.1,117.79 39.32,117.79 39.15,117.79  32.7,108.11 29.49,110.47 35.18,117.79 19.49,117.79 14.81,121.22 74.3,121.22 69.8,117.79 "></polygon><polygon class="st13" points="65.21,126.63 58.88,126.63 79.21,144.25 102.18,126.63 95.42,126.63 79.21,140.28 "></polygon><polygon class="st13" points="10.61,156.28 8,153.68 6.5,155.17 6.5,157.4 8,158.89 "></polygon><polygon class="st13" points="80.02,135.44 74.07,126.63 69.64,126.63 79.67,137.6 92.51,126.63 86.09,126.63 "></polygon><polygon class="st13" points="43.71,111.2 49.6,102.37 46.66,100.12 43.78,103.83 41.88,101.39 38.72,103.7 "></polygon><polygon class="st13" points="11.51,126.63 31.84,144.25 54.81,126.63 48.06,126.63 31.84,140.28 17.84,126.63 "></polygon><polygon class="st13" points="45.14,126.63 38.72,126.63 32.66,135.44 26.71,126.63 22.27,126.63 32.31,137.6 "></polygon></svg>